# xmcd
#
# Track frame offsets: 
#        150
#        10070
#        21152
#        32342
#        42715
#        56707
#        64360
#        77555
#        91812
#        102290
#        111890
#        123310
#        134442
#        146515
#        158952
#        169132
#        180647
#        192847
#        204725
#        217935
#        227972
#        239160
#        250437
#        262300
#        271282
#        281195
#        293970
#        308050
#        319455
#        331790
#        341772
#
# Disc length: 4694 seconds
#
# Revision: 0
# Processed by: cddbd v1.5.1PL0 Copyright (c) Steve Scherf et al.
# Submitted via: ExactAudioCopy v0.95a4
#
DISCID=e212541f
DTITLE=Various Artist - The 'D' Singles Volume 5 - Disc 4
DYEAR=1900
DGENRE=Country
TTITLE0=Truitt Forse and Jerry Lynn - Searching For Someone To Love
TTITLE1=Truitt Forse and Jerry Lynn - Fool You Fool
TTITLE2=Mary Fran - Tic-Tac-Toe
TTITLE3=Mary Fran - I'm Tired Of Waiting
TTITLE4=Joe Jackson - Who's This Lonely Fool
TTITLE5=Joe Jackson - Rock My Warriors Rock
TTITLE6=Don Gilbert - Your Time For Tears
TTITLE7=Don Gilbert - With Open Arms
TTITLE8=Danny and Audrey Harrison - The Lord's Masterpiece
TTITLE9=Danny and Audrey Harrison - He Heard Me Cry
TTITLE10=Bonny Lee - My Face Is Red
TTITLE11=Bonny Lee - No Condition For Love
TTITLE12=Dwayne Ely - Don't Look Back
TTITLE13=Dwayne Ely - It's Your Turn To Cry
TTITLE14=Bill Eidson - Your Past Life
TTITLE15=Bill Eidson - Worst Heartache
TTITLE16=Fay Frymire - Big Clown A Crying
TTITLE17=Fay Frymire - Blue Side Of Heaven
TTITLE18=Jimmy Dry - Never Too Late
TTITLE19=Jimmy Dry - Who's This Lonely Fool
TTITLE20=Jack Starr - Footsteps Of A Fool
TTITLE21=Jack Starr - And Then I Knew
TTITLE22=Don Adams - I Just Lost My Favorite Girl
TTITLE23=Don Adams - You Introduced Me To The Blues
TTITLE24=Don Adams - Heartaches Deep In Sorrow
TTITLE25=Milta Peterson - The Brush Off
TTITLE26=Milta Peterson - Forgiving You Again
TTITLE27=Stoney Stark - Face In The Crowd
TTITLE28=Stoney Stark - Your Conscience Will Hurt
TTITLE29=Danny Harrison - Beware Of Her You Fool
TTITLE30=Danny Harrison - Hush Little Baby
EXTD=
EXTT0=
EXTT1=
EXTT2=
EXTT3=
EXTT4=
EXTT5=
EXTT6=
EXTT7=
EXTT8=
EXTT9=
EXTT10=
EXTT11=
EXTT12=
EXTT13=
EXTT14=
EXTT15=
EXTT16=
EXTT17=
EXTT18=
EXTT19=
EXTT20=
EXTT21=
EXTT22=
EXTT23=
EXTT24=
EXTT25=
EXTT26=
EXTT27=
EXTT28=
EXTT29=
EXTT30=
PLAYORDER=
